# xmcd
#
# Track frame offsets:
#	150
#	11295
#	21858
#	34832
#	45925
#	59155
#	73674
#	85100
#	94791
#	108323
#	123566
#	133252
#	146395
#	160249
#
# Disc length: 2261 seconds
#
# Revision: 1
# Processed by: cddbd v1.5.2PL0 Copyright (c) Steve Scherf et al.
# Submitted via: audiograbber 1.83.01
#
DISCID=ba08d30e
DTITLE=Kieran McGilligan - Hang My Picture In Your Heart
DYEAR=2001
DGENRE=
TTITLE0=My World's Come Down
TTITLE1=Love Is Where You Hang Your Heart
TTITLE2=Hang My Picture In Your Heart
TTITLE3=Lucky Lips
TTITLE4=Along The Faughan Side
TTITLE5=Somebody Lied
TTITLE6=I Wish I Had A Nickle
TTITLE7=Why Do Fools Fall In Love?
TTITLE8=The Shamrock And Heather
TTITLE9=These Are My Mountains
TTITLE10=Holiday For Love
TTITLE11=Fraulien
TTITLE12=The Streets Of Dublin
TTITLE13=Let The World Keep On A Turnin'
EXTD=
EXTT0=
EXTT1=
EXTT2=
EXTT3=
EXTT4=
EXTT5=
EXTT6=
EXTT7=
EXTT8=
EXTT9=
EXTT10=
EXTT11=
EXTT12=
EXTT13=
PLAYORDER=
